<svg width="24" height="24" viewBox="0 0 24 24" fill="none" xmlns="http://www.w3.org/2000/svg">
<path d="M7 9H5V20H19V9H17V7H20C20.5523 7 21 7.44772 21 8V21C20.9999 21.5522 20.5522 22 20 22H4C3.44777 22 3.00009 21.5522 3 21V8C3 7.44772 3.44772 7 4 7H7V9ZM16.207 4.79297C16.5975 5.18348 16.5975 5.8165 16.207 6.20703C15.8165 6.59756 15.1835 6.59756 14.793 6.20703L13 4.41406V12C13 12.5523 12.5523 13 12 13C11.4477 13 11 12.5523 11 12V4.41309L9.20703 6.20605C8.81646 6.59653 8.18345 6.59661 7.79297 6.20605C7.40253 5.81548 7.40242 5.18246 7.79297 4.79199L11.293 1.29297L12 0.585938L16.207 4.79297Z" fill="#DEDEDE"/>
</svg>
