<svg width="12" height="12" viewBox="0 0 12 12" fill="none" xmlns="http://www.w3.org/2000/svg">
<mask id="path-1-inside-1_2026_6284" fill="white">
<path d="M3 11H1V9H3V11ZM7 11H5V9H7V11ZM11 9V11H9V9H11Z"/>
</mask>
<path d="M3 11H1V9H3V11ZM7 11H5V9H7V11ZM11 9V11H9V9H11Z" fill="#DEDEDE"/>
<path d="M3 11V12H4V11H3ZM1 11H0V12H1V11ZM1 9V8H0V9H1ZM3 9H4V8H3V9ZM7 11V12H8V11H7ZM5 11H4V12H5V11ZM5 9V8H4V9H5ZM7 9H8V8H7V9ZM11 9H12V8H11V9ZM11 11V12H12V11H11ZM9 11H8V12H9V11ZM9 9V8H8V9H9ZM3 11V10H1V11V12H3V11ZM1 11H2V9H1H0V11H1ZM1 9V10H3V9V8H1V9ZM3 9H2V11H3H4V9H3ZM7 11V10H5V11V12H7V11ZM5 11H6V9H5H4V11H5ZM5 9V10H7V9V8H5V9ZM7 9H6V11H7H8V9H7ZM11 9H10V11H11H12V9H11ZM11 11V10H9V11V12H11V11ZM9 11H10V9H9H8V11H9ZM9 9V10H11V9V8H9V9Z" fill="#DEDEDE" mask="url(#path-1-inside-1_2026_6284)"/>
</svg>
