<svg width="24" height="24" viewBox="0 0 24 24" fill="none" xmlns="http://www.w3.org/2000/svg">
<path d="M12 1C18.0751 1 23 5.92487 23 12C23 18.0751 18.0751 23 12 23C5.92487 23 1 18.0751 1 12C1 5.92487 5.92487 1 12 1ZM12 3C7.02944 3 3 7.02944 3 12C3 16.9706 7.02944 21 12 21C16.9706 21 21 16.9706 21 12C21 7.02944 16.9706 3 12 3ZM12 6C12.5523 6 13 6.44772 13 7V14.0859L14.793 12.293C15.1835 11.9024 15.8165 11.9024 16.207 12.293C16.5976 12.6835 16.5976 13.3165 16.207 13.707L12 17.9141L7.79297 13.707C7.40244 13.3165 7.40244 12.6835 7.79297 12.293C8.18349 11.9024 8.81651 11.9024 9.20703 12.293L11 14.0859V7C11 6.44772 11.4477 6 12 6Z" fill="#DEDEDE"/>
</svg>
