<svg width="32" height="32" viewBox="0 0 32 32" fill="none" xmlns="http://www.w3.org/2000/svg">
<path d="M14.5 3.5C20.299 3.5 25 8.20101 25 14C25 16.6668 24.0032 19.0992 22.3652 20.9512L27.707 26.293C28.0976 26.6835 28.0976 27.3165 27.707 27.707C27.3165 28.0976 26.6835 28.0976 26.293 27.707L20.9033 22.3174C19.1307 23.6841 16.9114 24.5 14.5 24.5C8.70101 24.5 4 19.799 4 14C4 8.20101 8.70101 3.5 14.5 3.5ZM14.5 5.5C9.80558 5.5 6 9.30558 6 14C6 18.6944 9.80558 22.5 14.5 22.5C19.1944 22.5 23 18.6944 23 14C23 9.30558 19.1944 5.5 14.5 5.5Z" fill="#DEDEDE"/>
</svg>
