<svg width="32" height="32" viewBox="0 0 32 32" fill="none" xmlns="http://www.w3.org/2000/svg">
<path d="M15 6C20.2467 6 24.5 10.2533 24.5 15.5C24.5 17.7631 23.7068 19.8398 22.3857 21.4717L26.207 25.293C26.5976 25.6835 26.5976 26.3165 26.207 26.707C25.8165 27.0976 25.1835 27.0976 24.793 26.707L20.9717 22.8857C19.3398 24.2068 17.2631 25 15 25C9.75329 25 5.5 20.7467 5.5 15.5C5.5 10.2533 9.75329 6 15 6ZM15 8C10.8579 8 7.5 11.3579 7.5 15.5C7.5 19.6421 10.8579 23 15 23C19.1421 23 22.5 19.6421 22.5 15.5C22.5 11.3579 19.1421 8 15 8ZM15 10.5C17.7614 10.5 20 12.7386 20 15.5C20 18.2614 17.7614 20.5 15 20.5C12.2386 20.5 10 18.2614 10 15.5C10 12.7386 12.2386 10.5 15 10.5Z" fill="white"/>
</svg>
