<svg width="32" height="32" viewBox="0 0 32 32" fill="none" xmlns="http://www.w3.org/2000/svg">
<path d="M15.7842 5.56543C16.0564 5.46183 16.3632 5.48169 16.6221 5.62402L25.4814 10.4951C25.801 10.6709 26 11.0073 26 11.3721V25.5C26 26.0523 25.5523 26.5 25 26.5H18.5C17.9477 26.5 17.5 26.0523 17.5 25.5V19.5H14.5V25.5C14.5 26.0523 14.0523 26.5 13.5 26.5H7C6.44772 26.5 6 26.0523 6 25.5V11.3721L6.00977 11.2354C6.0531 10.9205 6.24408 10.6414 6.5293 10.4893L15.6689 5.61719L15.7842 5.56543ZM8 11.9717V24.5H12.5V18.5C12.5 17.9477 12.9477 17.5 13.5 17.5H18.5C19.0523 17.5 19.5 17.9477 19.5 18.5V24.5H24V11.9629L16.1328 7.63672L8 11.9717Z" fill="#DEDEDE"/>
</svg>
