<svg width="32" height="32" viewBox="0 0 32 32" fill="none" xmlns="http://www.w3.org/2000/svg">
<path d="M7 6C7.55228 6 8 6.44772 8 7V25.5C8 26.0523 7.55228 26.5 7 26.5C6.44772 26.5 6 26.0523 6 25.5V7C6 6.44772 6.44772 6 7 6ZM13 6C13.5523 6 14 6.44772 14 7V25.5C14 26.0523 13.5523 26.5 13 26.5C12.4477 26.5 12 26.0523 12 25.5V7C12 6.44772 12.4477 6 13 6ZM18.502 6.13281C18.8124 5.95454 19.1947 5.95545 19.5039 6.13574L26.0039 9.92578C26.311 10.1049 26.4999 10.4336 26.5 10.7891V25.5C26.5 26.0523 26.0523 26.5 25.5 26.5H19C18.4477 26.5 18 26.0523 18 25.5V7L18.0088 6.86719C18.0497 6.56163 18.2303 6.28886 18.502 6.13281ZM20 24.5H24.5V11.3633L20 8.74023V24.5Z" fill="#DEDEDE"/>
</svg>
