<svg width="32" height="32" viewBox="0 0 32 32" fill="none" xmlns="http://www.w3.org/2000/svg">
<path d="M15.7842 5.56543C16.0564 5.46183 16.3632 5.48169 16.6221 5.62402L25.4814 10.4951C25.801 10.6709 26 11.0073 26 11.3721V25.5C26 26.0523 25.5523 26.5 25 26.5H19C18.4477 26.5 18 26.0523 18 25.5V20C18 19.7239 17.7761 19.5 17.5 19.5H14.5C14.2239 19.5 14 19.7239 14 20V25.5C14 26.0523 13.5523 26.5 13 26.5H7C6.44772 26.5 6 26.0523 6 25.5V11.3721L6.00977 11.2354C6.0531 10.9205 6.24408 10.6414 6.5293 10.4893L15.6689 5.61719L15.7842 5.56543Z" fill="white"/>
</svg>
