<svg width="32" height="32" viewBox="0 0 32 32" fill="none" xmlns="http://www.w3.org/2000/svg">
<path d="M15.999 1.3667C24.0806 1.3667 30.6325 7.91798 30.6328 15.9995C30.6328 24.0813 24.0808 30.6333 15.999 30.6333C7.9175 30.633 1.36621 24.0811 1.36621 15.9995C1.36649 7.91816 7.91767 1.36698 15.999 1.3667ZM15.999 3.96631C9.35361 3.96659 3.9661 9.3541 3.96582 15.9995C3.96582 22.6452 9.35344 28.0324 15.999 28.0327C22.6449 28.0327 28.0322 22.6453 28.0322 15.9995C28.0319 9.35392 22.6447 3.96631 15.999 3.96631ZM16 7.69971C16.7176 7.69995 17.2996 8.28187 17.2998 8.99951V14.7007H23C23.7178 14.7008 24.2998 15.2826 24.2998 16.0005C24.2996 16.7182 23.7177 17.3001 23 17.3003H17.2998V22.9995C17.2998 23.7173 16.7178 24.2991 16 24.2993C15.2822 24.2992 14.7002 23.7174 14.7002 22.9995V17.3003H9C8.28218 17.3003 7.70044 16.7182 7.7002 16.0005C7.7002 15.2825 8.28203 14.7007 9 14.7007H14.7002V8.99951C14.7004 8.28172 15.2822 7.69972 16 7.69971Z" fill="#DEDEDE"/>
</svg>
