<svg width="64" height="64" viewBox="0 0 64 64" fill="none" xmlns="http://www.w3.org/2000/svg">
<path d="M57 49C57 54.5228 52.5228 59 47 59C41.4772 59 37 54.5228 37 49C37 43.4772 41.4772 39 47 39H51V12H20V49C20 54.5228 15.5228 59 10 59C4.47715 59 0 54.5228 0 49C0 43.4772 4.47715 39 10 39H14V6H57V49ZM10 45C7.79086 45 6 46.7909 6 49C6 51.2091 7.79086 53 10 53C12.2091 53 14 51.2091 14 49V45H10ZM47 45C44.7909 45 43 46.7909 43 49C43 51.2091 44.7909 53 47 53C49.2091 53 51 51.2091 51 49V45H47Z" fill="#DEDEDE"/>
</svg>
