<svg width="34" height="34" viewBox="0 0 34 34" fill="none" xmlns="http://www.w3.org/2000/svg">
<path d="M17 0C26.3888 0 34 7.61116 34 17C34 26.3888 26.3888 34 17 34C7.61116 34 0 26.3888 0 17C0 7.61116 7.61116 0 17 0ZM26.207 10.8838C25.8165 10.4935 25.1835 10.4935 24.793 10.8838L13.9092 21.7676L9.97949 17.8379C9.58901 17.448 8.9558 17.4478 8.56543 17.8379C8.17496 18.2284 8.17506 18.8624 8.56543 19.2529L13.2021 23.8887L13.9092 24.5957L26.207 12.2979C26.5974 11.9073 26.5975 11.2743 26.207 10.8838Z" fill="#1ED760"/>
</svg>
