<svg width="358" height="30" viewBox="0 0 358 30" fill="none" xmlns="http://www.w3.org/2000/svg">
<rect width="54" height="30" rx="15" fill="white" fill-opacity="0.5"/>
<path d="M17.2624 19.088C17.0864 19.088 16.9434 19.0477 16.8334 18.967C16.7307 18.8863 16.6684 18.78 16.6464 18.648C16.6244 18.5087 16.65 18.3547 16.7234 18.186L19.6274 11.751C19.7227 11.5383 19.8364 11.388 19.9684 11.3C20.1077 11.2047 20.2654 11.157 20.4414 11.157C20.61 11.157 20.7604 11.2047 20.8924 11.3C21.0317 11.388 21.149 11.5383 21.2444 11.751L24.1594 18.186C24.24 18.3547 24.2694 18.5087 24.2474 18.648C24.2254 18.7873 24.163 18.8973 24.0604 18.978C23.9577 19.0513 23.822 19.088 23.6534 19.088C23.448 19.088 23.2867 19.0403 23.1694 18.945C23.0594 18.8423 22.9604 18.6883 22.8724 18.483L22.1574 16.822L22.7514 17.207H18.1094L18.7034 16.822L17.9994 18.483C17.904 18.6957 17.805 18.8497 17.7024 18.945C17.5997 19.0403 17.453 19.088 17.2624 19.088ZM20.4194 12.774L18.8794 16.437L18.5934 16.085H22.2674L21.9924 16.437L20.4414 12.774H20.4194ZM27.2532 19.11C26.7839 19.11 26.3695 18.9963 26.0102 18.769C25.6582 18.5417 25.3832 18.219 25.1852 17.801C24.9872 17.3757 24.8882 16.877 24.8882 16.305C24.8882 15.7257 24.9872 15.2307 25.1852 14.82C25.3832 14.402 25.6582 14.0793 26.0102 13.852C26.3695 13.6247 26.7839 13.511 27.2532 13.511C27.7005 13.511 28.0892 13.621 28.4192 13.841C28.7565 14.061 28.9839 14.3507 29.1012 14.71H28.9802V11.85C28.9802 11.6227 29.0389 11.4503 29.1562 11.333C29.2735 11.2157 29.4422 11.157 29.6622 11.157C29.8822 11.157 30.0509 11.2157 30.1682 11.333C30.2929 11.4503 30.3552 11.6227 30.3552 11.85V18.384C30.3552 18.6113 30.2965 18.7873 30.1792 18.912C30.0619 19.0293 29.8932 19.088 29.6732 19.088C29.4532 19.088 29.2845 19.0293 29.1672 18.912C29.0499 18.7873 28.9912 18.6113 28.9912 18.384V17.526L29.1122 17.856C29.0022 18.2373 28.7785 18.5417 28.4412 18.769C28.1039 18.9963 27.7079 19.11 27.2532 19.11ZM27.6382 18.065C27.9095 18.065 28.1479 17.999 28.3532 17.867C28.5585 17.735 28.7162 17.5407 28.8262 17.284C28.9435 17.02 29.0022 16.6937 29.0022 16.305C29.0022 15.7183 28.8775 15.282 28.6282 14.996C28.3789 14.7027 28.0489 14.556 27.6382 14.556C27.3669 14.556 27.1285 14.622 26.9232 14.754C26.7179 14.8787 26.5565 15.073 26.4392 15.337C26.3292 15.5937 26.2742 15.9163 26.2742 16.305C26.2742 16.8843 26.3989 17.3243 26.6482 17.625C26.8975 17.9183 27.2275 18.065 27.6382 18.065ZM33.8489 19.11C33.3796 19.11 32.9653 18.9963 32.6059 18.769C32.2539 18.5417 31.9789 18.219 31.7809 17.801C31.5829 17.3757 31.4839 16.877 31.4839 16.305C31.4839 15.7257 31.5829 15.2307 31.7809 14.82C31.9789 14.402 32.2539 14.0793 32.6059 13.852C32.9653 13.6247 33.3796 13.511 33.8489 13.511C34.2963 13.511 34.6849 13.621 35.0149 13.841C35.3523 14.061 35.5796 14.3507 35.6969 14.71H35.5759V11.85C35.5759 11.6227 35.6346 11.4503 35.7519 11.333C35.8693 11.2157 36.0379 11.157 36.2579 11.157C36.4779 11.157 36.6466 11.2157 36.7639 11.333C36.8886 11.4503 36.9509 11.6227 36.9509 11.85V18.384C36.9509 18.6113 36.8923 18.7873 36.7749 18.912C36.6576 19.0293 36.4889 19.088 36.2689 19.088C36.0489 19.088 35.8803 19.0293 35.7629 18.912C35.6456 18.7873 35.5869 18.6113 35.5869 18.384V17.526L35.7079 17.856C35.5979 18.2373 35.3743 18.5417 35.0369 18.769C34.6996 18.9963 34.3036 19.11 33.8489 19.11ZM34.2339 18.065C34.5053 18.065 34.7436 17.999 34.9489 17.867C35.1543 17.735 35.3119 17.5407 35.4219 17.284C35.5393 17.02 35.5979 16.6937 35.5979 16.305C35.5979 15.7183 35.4733 15.282 35.2239 14.996C34.9746 14.7027 34.6446 14.556 34.2339 14.556C33.9626 14.556 33.7243 14.622 33.5189 14.754C33.3136 14.8787 33.1523 15.073 33.0349 15.337C32.9249 15.5937 32.8699 15.9163 32.8699 16.305C32.8699 16.8843 32.9946 17.3243 33.2439 17.625C33.4933 17.9183 33.8233 18.065 34.2339 18.065Z" fill="white"/>
<rect x="62" width="51" height="30" rx="15" fill="white" fill-opacity="0.5"/>
<path d="M79.8278 19.088C79.6225 19.088 79.4648 19.0293 79.3548 18.912C79.2448 18.7947 79.1898 18.6333 79.1898 18.428V11.817C79.1898 11.6043 79.2485 11.443 79.3658 11.333C79.4831 11.2157 79.6445 11.157 79.8498 11.157C80.0331 11.157 80.1761 11.1937 80.2788 11.267C80.3888 11.333 80.4878 11.4503 80.5758 11.619L83.2928 16.646H82.9408L85.6578 11.619C85.7458 11.4503 85.8411 11.333 85.9438 11.267C86.0465 11.1937 86.1895 11.157 86.3728 11.157C86.5781 11.157 86.7358 11.2157 86.8458 11.333C86.9558 11.443 87.0108 11.6043 87.0108 11.817V18.428C87.0108 18.6333 86.9558 18.7947 86.8458 18.912C86.7431 19.0293 86.5855 19.088 86.3728 19.088C86.1675 19.088 86.0098 19.0293 85.8998 18.912C85.7898 18.7947 85.7348 18.6333 85.7348 18.428V13.335H85.9768L83.6668 17.548C83.5935 17.6727 83.5165 17.7643 83.4358 17.823C83.3551 17.8817 83.2451 17.911 83.1058 17.911C82.9665 17.911 82.8528 17.8817 82.7648 17.823C82.6768 17.757 82.5998 17.6653 82.5338 17.548L80.2018 13.324H80.4658V18.428C80.4658 18.6333 80.4108 18.7947 80.3008 18.912C80.1981 19.0293 80.0405 19.088 79.8278 19.088ZM89.2676 19.077C89.0476 19.077 88.8789 19.011 88.7616 18.879C88.6443 18.747 88.5856 18.5637 88.5856 18.329V14.292C88.5856 14.05 88.6443 13.8667 88.7616 13.742C88.8789 13.61 89.0476 13.544 89.2676 13.544C89.4876 13.544 89.6563 13.61 89.7736 13.742C89.8983 13.8667 89.9606 14.05 89.9606 14.292V18.329C89.9606 18.5637 89.9019 18.747 89.7846 18.879C89.6673 19.011 89.4949 19.077 89.2676 19.077ZM89.2676 12.521C89.0109 12.521 88.8093 12.4587 88.6626 12.334C88.5233 12.202 88.4536 12.0223 88.4536 11.795C88.4536 11.5603 88.5233 11.3807 88.6626 11.256C88.8093 11.1313 89.0109 11.069 89.2676 11.069C89.5316 11.069 89.7333 11.1313 89.8726 11.256C90.0119 11.3807 90.0816 11.5603 90.0816 11.795C90.0816 12.0223 90.0119 12.202 89.8726 12.334C89.7333 12.4587 89.5316 12.521 89.2676 12.521ZM91.7633 19.055C91.602 19.055 91.4663 19.011 91.3563 18.923C91.2536 18.8277 91.1986 18.7067 91.1913 18.56C91.1913 18.4133 91.2536 18.2593 91.3783 18.098L93.1603 15.898V16.547L91.4883 14.49C91.3563 14.3287 91.294 14.1747 91.3013 14.028C91.3086 13.8813 91.3636 13.764 91.4663 13.676C91.5763 13.5807 91.712 13.533 91.8733 13.533C92.042 13.533 92.1813 13.5623 92.2913 13.621C92.4086 13.6797 92.515 13.7713 92.6103 13.896L93.9303 15.59H93.4463L94.7773 13.896C94.88 13.7713 94.9863 13.6797 95.0963 13.621C95.2063 13.5623 95.342 13.533 95.5033 13.533C95.672 13.533 95.8076 13.5807 95.9103 13.676C96.013 13.7713 96.0643 13.8923 96.0643 14.039C96.0716 14.1857 96.0093 14.3397 95.8773 14.501L94.2163 16.536V15.92L95.9983 18.098C96.1303 18.252 96.1927 18.4023 96.1853 18.549C96.178 18.6957 96.1193 18.8167 96.0093 18.912C95.9066 19.0073 95.771 19.055 95.6023 19.055C95.441 19.055 95.3053 19.0257 95.1953 18.967C95.0853 18.9083 94.979 18.8167 94.8763 18.692L93.4463 16.888H93.9083L92.4893 18.692C92.394 18.8093 92.2913 18.901 92.1813 18.967C92.0713 19.0257 91.932 19.055 91.7633 19.055Z" fill="white"/>
<rect x="121" width="53" height="30" rx="15" fill="white" fill-opacity="0.5"/>
<path d="M139.019 19C138.777 19 138.59 18.9377 138.458 18.813C138.333 18.681 138.271 18.494 138.271 18.252V11.993C138.271 11.751 138.333 11.5677 138.458 11.443C138.59 11.311 138.777 11.245 139.019 11.245H142.946C143.129 11.245 143.268 11.2927 143.364 11.388C143.466 11.4833 143.518 11.619 143.518 11.795C143.518 11.9783 143.466 12.1213 143.364 12.224C143.268 12.3193 143.129 12.367 142.946 12.367H139.624V14.501H142.704C142.894 14.501 143.037 14.5487 143.133 14.644C143.228 14.7393 143.276 14.8787 143.276 15.062C143.276 15.2453 143.228 15.3847 143.133 15.48C143.037 15.5753 142.894 15.623 142.704 15.623H139.624V17.878H142.946C143.129 17.878 143.268 17.9257 143.364 18.021C143.466 18.1163 143.518 18.2557 143.518 18.439C143.518 18.6223 143.466 18.7617 143.364 18.857C143.268 18.9523 143.129 19 142.946 19H139.019ZM146.738 19.11C146.269 19.11 145.854 18.9963 145.495 18.769C145.143 18.5417 144.868 18.219 144.67 17.801C144.472 17.3757 144.373 16.877 144.373 16.305C144.373 15.7257 144.472 15.2307 144.67 14.82C144.868 14.402 145.143 14.0793 145.495 13.852C145.854 13.6247 146.269 13.511 146.738 13.511C147.185 13.511 147.574 13.621 147.904 13.841C148.241 14.061 148.469 14.3507 148.586 14.71H148.465V11.85C148.465 11.6227 148.524 11.4503 148.641 11.333C148.758 11.2157 148.927 11.157 149.147 11.157C149.367 11.157 149.536 11.2157 149.653 11.333C149.778 11.4503 149.84 11.6227 149.84 11.85V18.384C149.84 18.6113 149.781 18.7873 149.664 18.912C149.547 19.0293 149.378 19.088 149.158 19.088C148.938 19.088 148.769 19.0293 148.652 18.912C148.535 18.7873 148.476 18.6113 148.476 18.384V17.526L148.597 17.856C148.487 18.2373 148.263 18.5417 147.926 18.769C147.589 18.9963 147.193 19.11 146.738 19.11ZM147.123 18.065C147.394 18.065 147.633 17.999 147.838 17.867C148.043 17.735 148.201 17.5407 148.311 17.284C148.428 17.02 148.487 16.6937 148.487 16.305C148.487 15.7183 148.362 15.282 148.113 14.996C147.864 14.7027 147.534 14.556 147.123 14.556C146.852 14.556 146.613 14.622 146.408 14.754C146.203 14.8787 146.041 15.073 145.924 15.337C145.814 15.5937 145.759 15.9163 145.759 16.305C145.759 16.8843 145.884 17.3243 146.133 17.625C146.382 17.9183 146.712 18.065 147.123 18.065ZM151.948 19.077C151.728 19.077 151.559 19.011 151.442 18.879C151.324 18.747 151.266 18.5637 151.266 18.329V14.292C151.266 14.05 151.324 13.8667 151.442 13.742C151.559 13.61 151.728 13.544 151.948 13.544C152.168 13.544 152.336 13.61 152.454 13.742C152.578 13.8667 152.641 14.05 152.641 14.292V18.329C152.641 18.5637 152.582 18.747 152.465 18.879C152.347 19.011 152.175 19.077 151.948 19.077ZM151.948 12.521C151.691 12.521 151.489 12.4587 151.343 12.334C151.203 12.202 151.134 12.0223 151.134 11.795C151.134 11.5603 151.203 11.3807 151.343 11.256C151.489 11.1313 151.691 11.069 151.948 11.069C152.212 11.069 152.413 11.1313 152.553 11.256C152.692 11.3807 152.762 11.5603 152.762 11.795C152.762 12.0223 152.692 12.202 152.553 12.334C152.413 12.4587 152.212 12.521 151.948 12.521ZM156.533 19.11C156.057 19.11 155.657 19.0293 155.334 18.868C155.019 18.7067 154.784 18.472 154.63 18.164C154.476 17.8487 154.399 17.46 154.399 16.998V14.655H153.827C153.651 14.655 153.516 14.611 153.42 14.523C153.325 14.4277 153.277 14.2993 153.277 14.138C153.277 13.9693 153.325 13.841 153.42 13.753C153.516 13.665 153.651 13.621 153.827 13.621H154.399V12.62C154.399 12.3927 154.458 12.2203 154.575 12.103C154.7 11.9857 154.872 11.927 155.092 11.927C155.312 11.927 155.481 11.9857 155.598 12.103C155.716 12.2203 155.774 12.3927 155.774 12.62V13.621H156.94C157.116 13.621 157.252 13.665 157.347 13.753C157.443 13.841 157.49 13.9693 157.49 14.138C157.49 14.2993 157.443 14.4277 157.347 14.523C157.252 14.611 157.116 14.655 156.94 14.655H155.774V16.921C155.774 17.273 155.851 17.537 156.005 17.713C156.159 17.889 156.409 17.977 156.753 17.977C156.878 17.977 156.988 17.966 157.083 17.944C157.179 17.922 157.263 17.9073 157.336 17.9C157.424 17.8927 157.498 17.922 157.556 17.988C157.615 18.0467 157.644 18.1713 157.644 18.362C157.644 18.5087 157.619 18.6407 157.567 18.758C157.523 18.868 157.439 18.945 157.314 18.989C157.219 19.0183 157.094 19.044 156.94 19.066C156.786 19.0953 156.651 19.11 156.533 19.11Z" fill="white"/>
<rect x="182" width="69" height="30" rx="15" fill="white" fill-opacity="0.5"/>
<path d="M200 19C199.758 19 199.571 18.9377 199.439 18.813C199.314 18.681 199.252 18.494 199.252 18.252V11.993C199.252 11.751 199.314 11.5677 199.439 11.443C199.571 11.311 199.758 11.245 200 11.245H202.134C203.432 11.245 204.433 11.5787 205.137 12.246C205.848 12.9133 206.204 13.8703 206.204 15.117C206.204 15.7403 206.112 16.294 205.929 16.778C205.753 17.2547 205.489 17.658 205.137 17.988C204.792 18.318 204.367 18.571 203.861 18.747C203.362 18.9157 202.786 19 202.134 19H200ZM200.66 17.834H202.046C202.5 17.834 202.893 17.779 203.223 17.669C203.56 17.5517 203.839 17.383 204.059 17.163C204.286 16.9357 204.455 16.6533 204.565 16.316C204.675 15.9713 204.73 15.5717 204.73 15.117C204.73 14.2077 204.506 13.5293 204.059 13.082C203.611 12.6347 202.94 12.411 202.046 12.411H200.66V17.834ZM210.15 19.11C209.541 19.11 209.017 18.9963 208.577 18.769C208.137 18.5417 207.796 18.219 207.554 17.801C207.319 17.383 207.202 16.888 207.202 16.316C207.202 15.7587 207.315 15.271 207.543 14.853C207.777 14.435 208.096 14.1087 208.5 13.874C208.91 13.632 209.376 13.511 209.897 13.511C210.278 13.511 210.619 13.5733 210.92 13.698C211.228 13.8227 211.488 14.0023 211.701 14.237C211.921 14.4717 212.086 14.7577 212.196 15.095C212.313 15.425 212.372 15.799 212.372 16.217C212.372 16.349 212.324 16.4517 212.229 16.525C212.141 16.591 212.012 16.624 211.844 16.624H208.313V15.832H211.404L211.228 15.997C211.228 15.6597 211.176 15.3773 211.074 15.15C210.978 14.9227 210.835 14.7503 210.645 14.633C210.461 14.5083 210.23 14.446 209.952 14.446C209.644 14.446 209.38 14.5193 209.16 14.666C208.947 14.8053 208.782 15.007 208.665 15.271C208.555 15.5277 208.5 15.8357 208.5 16.195V16.272C208.5 16.8733 208.639 17.3243 208.918 17.625C209.204 17.9183 209.622 18.065 210.172 18.065C210.362 18.065 210.575 18.043 210.81 17.999C211.052 17.9477 211.279 17.8633 211.492 17.746C211.646 17.658 211.781 17.6213 211.899 17.636C212.016 17.6433 212.108 17.6837 212.174 17.757C212.247 17.8303 212.291 17.922 212.306 18.032C212.32 18.1347 212.298 18.241 212.24 18.351C212.188 18.461 212.097 18.5563 211.965 18.637C211.708 18.7983 211.411 18.9193 211.074 19C210.744 19.0733 210.436 19.11 210.15 19.11ZM215.903 19.11C215.426 19.11 215.027 19.0293 214.704 18.868C214.389 18.7067 214.154 18.472 214 18.164C213.846 17.8487 213.769 17.46 213.769 16.998V14.655H213.197C213.021 14.655 212.885 14.611 212.79 14.523C212.695 14.4277 212.647 14.2993 212.647 14.138C212.647 13.9693 212.695 13.841 212.79 13.753C212.885 13.665 213.021 13.621 213.197 13.621H213.769V12.62C213.769 12.3927 213.828 12.2203 213.945 12.103C214.07 11.9857 214.242 11.927 214.462 11.927C214.682 11.927 214.851 11.9857 214.968 12.103C215.085 12.2203 215.144 12.3927 215.144 12.62V13.621H216.31C216.486 13.621 216.622 13.665 216.717 13.753C216.812 13.841 216.86 13.9693 216.86 14.138C216.86 14.2993 216.812 14.4277 216.717 14.523C216.622 14.611 216.486 14.655 216.31 14.655H215.144V16.921C215.144 17.273 215.221 17.537 215.375 17.713C215.529 17.889 215.778 17.977 216.123 17.977C216.248 17.977 216.358 17.966 216.453 17.944C216.548 17.922 216.633 17.9073 216.706 17.9C216.794 17.8927 216.867 17.922 216.926 17.988C216.985 18.0467 217.014 18.1713 217.014 18.362C217.014 18.5087 216.988 18.6407 216.937 18.758C216.893 18.868 216.809 18.945 216.684 18.989C216.589 19.0183 216.464 19.044 216.31 19.066C216.156 19.0953 216.02 19.11 215.903 19.11ZM219.432 19.11C219.043 19.11 218.695 19.0367 218.387 18.89C218.086 18.736 217.848 18.5307 217.672 18.274C217.503 18.0173 217.419 17.7277 217.419 17.405C217.419 17.009 217.521 16.6973 217.727 16.47C217.932 16.2353 218.266 16.0667 218.728 15.964C219.19 15.8613 219.809 15.81 220.587 15.81H221.137V16.602H220.598C220.143 16.602 219.78 16.624 219.509 16.668C219.237 16.712 219.043 16.789 218.926 16.899C218.816 17.0017 218.761 17.1483 218.761 17.339C218.761 17.581 218.845 17.779 219.014 17.933C219.182 18.087 219.417 18.164 219.718 18.164C219.96 18.164 220.172 18.109 220.356 17.999C220.546 17.8817 220.697 17.724 220.807 17.526C220.917 17.328 220.972 17.1007 220.972 16.844V15.579C220.972 15.2123 220.891 14.9483 220.73 14.787C220.568 14.6257 220.297 14.545 219.916 14.545C219.703 14.545 219.472 14.5707 219.223 14.622C218.981 14.6733 218.724 14.7613 218.453 14.886C218.313 14.952 218.189 14.9703 218.079 14.941C217.976 14.9117 217.895 14.853 217.837 14.765C217.778 14.6697 217.749 14.567 217.749 14.457C217.749 14.347 217.778 14.2407 217.837 14.138C217.895 14.028 217.994 13.9473 218.134 13.896C218.471 13.7567 218.794 13.6577 219.102 13.599C219.417 13.5403 219.703 13.511 219.96 13.511C220.488 13.511 220.92 13.5917 221.258 13.753C221.602 13.9143 221.859 14.16 222.028 14.49C222.196 14.8127 222.281 15.2307 222.281 15.744V18.384C222.281 18.6113 222.226 18.7873 222.116 18.912C222.006 19.0293 221.848 19.088 221.643 19.088C221.437 19.088 221.276 19.0293 221.159 18.912C221.049 18.7873 220.994 18.6113 220.994 18.384V17.856H221.082C221.03 18.1127 220.928 18.3363 220.774 18.527C220.627 18.7103 220.44 18.8533 220.213 18.956C219.985 19.0587 219.725 19.11 219.432 19.11ZM224.358 19.077C224.138 19.077 223.97 19.011 223.852 18.879C223.735 18.747 223.676 18.5637 223.676 18.329V14.292C223.676 14.05 223.735 13.8667 223.852 13.742C223.97 13.61 224.138 13.544 224.358 13.544C224.578 13.544 224.747 13.61 224.864 13.742C224.989 13.8667 225.051 14.05 225.051 14.292V18.329C225.051 18.5637 224.993 18.747 224.875 18.879C224.758 19.011 224.586 19.077 224.358 19.077ZM224.358 12.521C224.102 12.521 223.9 12.4587 223.753 12.334C223.614 12.202 223.544 12.0223 223.544 11.795C223.544 11.5603 223.614 11.3807 223.753 11.256C223.9 11.1313 224.102 11.069 224.358 11.069C224.622 11.069 224.824 11.1313 224.963 11.256C225.103 11.3807 225.172 11.5603 225.172 11.795C225.172 12.0223 225.103 12.202 224.963 12.334C224.824 12.4587 224.622 12.521 224.358 12.521ZM228.317 19.11C227.708 19.11 227.25 18.9377 226.942 18.593C226.634 18.241 226.48 17.7277 226.48 17.053V11.85C226.48 11.6227 226.539 11.4503 226.656 11.333C226.773 11.2157 226.942 11.157 227.162 11.157C227.382 11.157 227.551 11.2157 227.668 11.333C227.793 11.4503 227.855 11.6227 227.855 11.85V16.987C227.855 17.3243 227.925 17.5737 228.064 17.735C228.211 17.8963 228.416 17.977 228.68 17.977C228.739 17.977 228.794 17.977 228.845 17.977C228.896 17.9697 228.948 17.9623 228.999 17.955C229.102 17.9403 229.171 17.9697 229.208 18.043C229.245 18.109 229.263 18.2483 229.263 18.461C229.263 18.6443 229.226 18.7873 229.153 18.89C229.08 18.9927 228.959 19.055 228.79 19.077C228.717 19.0843 228.64 19.0917 228.559 19.099C228.478 19.1063 228.398 19.11 228.317 19.11ZM231.908 19.11C231.593 19.11 231.259 19.077 230.907 19.011C230.555 18.945 230.24 18.8313 229.961 18.67C229.844 18.5967 229.759 18.5123 229.708 18.417C229.664 18.3143 229.646 18.2153 229.653 18.12C229.668 18.0173 229.704 17.9293 229.763 17.856C229.829 17.7827 229.91 17.735 230.005 17.713C230.108 17.691 230.218 17.7093 230.335 17.768C230.628 17.9073 230.903 18.0063 231.16 18.065C231.417 18.1163 231.67 18.142 231.919 18.142C232.271 18.142 232.531 18.0833 232.7 17.966C232.876 17.8413 232.964 17.68 232.964 17.482C232.964 17.3133 232.905 17.185 232.788 17.097C232.678 17.0017 232.509 16.932 232.282 16.888L231.182 16.679C230.727 16.591 230.379 16.426 230.137 16.184C229.902 15.9347 229.785 15.6157 229.785 15.227C229.785 14.875 229.88 14.5707 230.071 14.314C230.269 14.0573 230.54 13.8593 230.885 13.72C231.23 13.5807 231.626 13.511 232.073 13.511C232.396 13.511 232.696 13.5477 232.975 13.621C233.261 13.687 233.536 13.7933 233.8 13.94C233.91 13.9987 233.983 14.0757 234.02 14.171C234.064 14.2663 234.075 14.3653 234.053 14.468C234.031 14.5633 233.987 14.6513 233.921 14.732C233.855 14.8053 233.771 14.853 233.668 14.875C233.573 14.8897 233.463 14.8677 233.338 14.809C233.111 14.6917 232.891 14.6073 232.678 14.556C232.473 14.5047 232.275 14.479 232.084 14.479C231.725 14.479 231.457 14.5413 231.281 14.666C231.112 14.7907 231.028 14.9557 231.028 15.161C231.028 15.315 231.079 15.4433 231.182 15.546C231.285 15.6487 231.442 15.7183 231.655 15.755L232.755 15.964C233.232 16.052 233.591 16.2133 233.833 16.448C234.082 16.6827 234.207 16.998 234.207 17.394C234.207 17.9293 233.998 18.351 233.58 18.659C233.162 18.9597 232.605 19.11 231.908 19.11Z" fill="white"/>
</svg>
